<?xml version="1.0" encoding="UTF-8"?>
<svg width="200" height="200" viewBox="0 0 200 200" version="1.1" xmlns="http://www.w3.org/2000/svg">
  <defs>
    <linearGradient id="purpleGradient" x1="0%" y1="0%" x2="100%" y2="100%">
      <stop offset="0%" style="stop-color:#6a11cb;stop-opacity:1" />
      <stop offset="100%" style="stop-color:#2575fc;stop-opacity:1" />
    </linearGradient>
    <filter id="shadow" x="-20%" y="-20%" width="140%" height="140%">
      <feDropShadow dx="0" dy="4" stdDeviation="6" flood-color="#000" flood-opacity="0.4"/>
    </filter>
  </defs>
  <rect x="20" y="20" width="160" height="160" rx="35" ry="35" fill="url(#purpleGradient)" filter="url(#shadow)"/>
  <g transform="translate(50, 60)">
    <path d="M15 0C6.716 0 0 6.716 0 15v35c0 8.284 6.716 15 15 15h35l18 19.5L86 65h14c8.284 0 15-6.716 15-15V15c0-8.284-6.716-15-15-15H15z" fill="#E6DFF2"/>
    <rect x="20" y="20" width="60" height="5" rx="2" fill="#6a11cb" opacity="0.8"/>
    <rect x="20" y="35" width="45" height="5" rx="2" fill="#6a11cb" opacity="0.8"/>
    <rect x="20" y="50" width="30" height="5" rx="2" fill="#6a11cb" opacity="0.8"/>
  </g>
  <polygon points="115 115 140 115 128 140 155 140 105 175 118 145 90 145" fill="#FFD700"/>
</svg>
